<svg width="94" height="94" viewBox="0 0 94 94" fill="none" xmlns="http://www.w3.org/2000/svg">
<circle cx="47.5" cy="48.5" r="44.5" fill="#FFFEFE"/>
<path d="M47 88.125C36.093 88.125 25.6327 83.7922 17.9202 76.0798C10.2078 68.3673 5.875 57.907 5.875 47C5.875 36.093 10.2078 25.6327 17.9202 17.9202C25.6327 10.2078 36.093 5.875 47 5.875C57.907 5.875 68.3673 10.2078 76.0798 17.9202C83.7922 25.6327 88.125 36.093 88.125 47C88.125 57.907 83.7922 68.3673 76.0798 76.0798C68.3673 83.7922 57.907 88.125 47 88.125ZM47 94C59.4652 94 71.4198 89.0482 80.234 80.234C89.0482 71.4198 94 59.4652 94 47C94 34.5348 89.0482 22.5802 80.234 13.766C71.4198 4.95177 59.4652 0 47 0C34.5348 0 22.5802 4.95177 13.766 13.766C4.95177 22.5802 0 34.5348 0 47C0 59.4652 4.95177 71.4198 13.766 80.234C22.5802 89.0482 34.5348 94 47 94V94Z" fill="#24C134"/>
<path d="M62.4485 32.1988C62.4067 32.2394 62.3674 32.2825 62.331 32.3281L41.9272 58.3249L29.6308 46.0227C28.7955 45.2444 27.6907 44.8206 26.5492 44.8408C25.4077 44.8609 24.3186 45.3234 23.5113 46.1307C22.704 46.938 22.2415 48.0271 22.2214 49.1686C22.2012 50.3101 22.625 51.4149 23.4033 52.2502L38.9485 67.8013C39.3673 68.2193 39.866 68.5487 40.4148 68.7698C40.9637 68.9909 41.5514 69.0992 42.143 69.0883C42.7347 69.0773 43.318 68.9473 43.8583 68.706C44.3985 68.4647 44.8847 68.1171 45.2877 67.6838L68.7407 38.3676C69.5393 37.5294 69.9759 36.4106 69.9562 35.253C69.9364 34.0955 69.4619 32.9922 68.6352 32.1817C67.8085 31.3713 66.6961 30.9187 65.5384 30.9219C64.3807 30.9251 63.2707 31.3838 62.4485 32.1988V32.1988Z" fill="#24C134"/>
</svg>
